<svg width="350" height="65" viewBox="0 0 437 72" fill="none" xmlns="http://www.w3.org/2000/svg">
<path d="M108.36 19.448H114.264L127.656 53H121.464L118.392 45.272H104.184L101.16 53H94.92L108.36 19.448ZM116.712 40.232L111.288 25.976L105.864 40.232H116.712ZM132.443 17.528H138.491V53H132.443V17.528ZM156.447 64.04C154.911 64.04 153.375 63.896 151.839 63.608C150.303 63.32 149.023 62.936 147.999 62.456V57.656C150.495 58.744 153.311 59.288 156.447 59.288C159.263 59.288 161.279 58.696 162.495 57.512C163.743 56.328 164.367 54.568 164.367 52.232V50.744C163.279 51.736 161.983 52.488 160.479 53C158.975 53.48 157.359 53.72 155.631 53.72C153.295 53.72 151.183 53.208 149.295 52.184C147.407 51.128 145.935 49.672 144.879 47.816C143.823 45.96 143.295 43.832 143.295 41.432C143.295 39 143.807 36.872 144.831 35.048C145.887 33.192 147.327 31.768 149.151 30.776C151.007 29.752 153.103 29.24 155.439 29.24C157.391 29.24 159.071 29.512 160.479 30.056C161.887 30.568 163.247 31.432 164.559 32.648V29.96H170.415V51.608C170.415 55.576 169.263 58.632 166.959 60.776C164.687 62.952 161.183 64.04 156.447 64.04ZM156.927 48.968C158.655 48.968 160.191 48.504 161.535 47.576C162.911 46.616 163.855 45.352 164.367 43.784V39.128C163.823 37.56 162.879 36.312 161.535 35.384C160.191 34.456 158.655 33.992 156.927 33.992C154.751 33.992 152.959 34.68 151.551 36.056C150.143 37.432 149.439 39.224 149.439 41.432C149.439 43.64 150.143 45.448 151.551 46.856C152.959 48.264 154.751 48.968 156.927 48.968ZM187.486 53.72C184.798 53.72 182.43 53.24 180.382 52.28C178.366 51.288 176.798 49.88 175.678 48.056C174.558 46.2 173.998 44.008 173.998 41.48C173.998 39.016 174.542 36.872 175.63 35.048C176.75 33.192 178.334 31.768 180.382 30.776C182.43 29.752 184.798 29.24 187.486 29.24C190.174 29.24 192.526 29.752 194.542 30.776C196.59 31.768 198.174 33.192 199.294 35.048C200.414 36.872 200.974 39.016 200.974 41.48C200.974 44.008 200.414 46.2 199.294 48.056C198.174 49.88 196.59 51.288 194.542 52.28C192.526 53.24 190.174 53.72 187.486 53.72ZM187.486 48.968C189.694 48.968 191.454 48.28 192.766 46.904C194.078 45.496 194.734 43.688 194.734 41.48C194.734 39.144 194.078 37.32 192.766 36.008C191.486 34.664 189.726 33.992 187.486 33.992C185.246 33.992 183.47 34.664 182.158 36.008C180.878 37.32 180.238 39.144 180.238 41.48C180.238 43.688 180.894 45.496 182.206 46.904C183.518 48.28 185.278 48.968 187.486 48.968ZM199.733 19.448H206.213L216.101 44.84L226.036 19.448H232.469L219.077 53H213.173L199.733 19.448ZM237.522 25.928C236.562 25.928 235.746 25.608 235.074 24.968C234.434 24.328 234.114 23.528 234.114 22.568C234.114 21.608 234.434 20.808 235.074 20.168C235.746 19.496 236.562 19.16 237.522 19.16C238.482 19.16 239.298 19.496 239.97 20.168C240.642 20.808 240.978 21.608 240.978 22.568C240.978 23.528 240.642 24.328 239.97 24.968C239.298 25.608 238.482 25.928 237.522 25.928ZM234.45 29.96H240.594V53H234.45V29.96ZM255.7 53.72C254.036 53.72 252.26 53.528 250.372 53.144C248.484 52.76 247.012 52.232 245.956 51.56V46.424C247.204 47.192 248.692 47.816 250.42 48.296C252.148 48.744 253.78 48.968 255.316 48.968C256.852 48.968 257.972 48.84 258.676 48.584C259.38 48.296 259.732 47.784 259.732 47.048C259.732 46.472 259.54 46.008 259.156 45.656C258.804 45.272 258.212 44.936 257.38 44.648C256.58 44.328 255.332 43.944 253.636 43.496C251.716 42.952 250.196 42.392 249.076 41.816C247.988 41.24 247.156 40.52 246.58 39.656C246.036 38.76 245.764 37.608 245.764 36.2C245.764 33.896 246.676 32.168 248.5 31.016C250.324 29.832 252.788 29.24 255.892 29.24C257.492 29.24 259.076 29.4 260.644 29.72C262.244 30.008 263.492 30.424 264.388 30.968V35.912C263.428 35.336 262.26 34.872 260.884 34.52C259.508 34.168 258.1 33.992 256.66 33.992C255.092 33.992 253.908 34.152 253.108 34.472C252.308 34.76 251.908 35.336 251.908 36.2C251.908 36.776 252.116 37.24 252.532 37.592C252.98 37.912 253.556 38.2 254.26 38.456C254.964 38.68 256.244 39.032 258.1 39.512C260.084 40.056 261.636 40.648 262.756 41.288C263.876 41.928 264.676 42.696 265.156 43.592C265.636 44.488 265.876 45.608 265.876 46.952C265.876 49 264.996 50.648 263.236 51.896C261.508 53.112 258.996 53.72 255.7 53.72ZM279.701 53.72C276.597 53.72 274.277 52.888 272.741 51.224C271.205 49.528 270.437 47.288 270.437 44.504V29.96H276.485V43.928C276.485 47.288 278.053 48.968 281.189 48.968C282.565 48.968 283.861 48.648 285.077 48.008C286.293 47.336 287.317 46.344 288.149 45.032V29.96H294.197V53H288.341V49.88C287.253 51.192 285.957 52.168 284.453 52.808C282.949 53.416 281.365 53.72 279.701 53.72ZM307.719 53.72C304.967 53.72 302.711 53 300.951 51.56C299.191 50.088 298.311 48.12 298.311 45.656C298.311 43.096 299.143 41.096 300.807 39.656C302.471 38.216 304.807 37.496 307.815 37.496C310.727 37.496 313.239 38.088 315.351 39.272V38.648C315.351 37.016 314.839 35.832 313.815 35.096C312.823 34.36 311.207 33.992 308.967 33.992C307.559 33.992 306.167 34.136 304.791 34.424C303.415 34.68 302.199 35.048 301.143 35.528V30.776C302.103 30.328 303.383 29.96 304.983 29.672C306.615 29.384 308.183 29.24 309.687 29.24C313.687 29.24 316.647 30.104 318.567 31.832C320.487 33.528 321.447 35.896 321.447 38.936V53H315.735V50.744C314.743 51.704 313.607 52.44 312.327 52.952C311.079 53.464 309.543 53.72 307.719 53.72ZM309.207 49.304C310.551 49.304 311.767 49.048 312.855 48.536C313.943 47.992 314.775 47.256 315.351 46.328V43.784C313.591 42.536 311.575 41.912 309.303 41.912C306.071 41.912 304.455 43.16 304.455 45.656C304.455 46.872 304.855 47.784 305.655 48.392C306.487 49 307.671 49.304 309.207 49.304ZM326.974 17.528H333.022V53H326.974V17.528ZM342.194 25.928C341.234 25.928 340.418 25.608 339.746 24.968C339.106 24.328 338.786 23.528 338.786 22.568C338.786 21.608 339.106 20.808 339.746 20.168C340.418 19.496 341.234 19.16 342.194 19.16C343.154 19.16 343.97 19.496 344.642 20.168C345.314 20.808 345.65 21.608 345.65 22.568C345.65 23.528 345.314 24.328 344.642 24.968C343.97 25.608 343.154 25.928 342.194 25.928ZM339.122 29.96H345.266V53H339.122V29.96ZM350.436 49.208L362.676 34.568H350.772V29.96H370.26V33.752L358.068 48.392H370.644V53H350.436V49.208ZM388.403 53.72C384.115 53.72 380.723 52.648 378.227 50.504C375.731 48.36 374.483 45.368 374.483 41.528C374.483 37.752 375.587 34.76 377.795 32.552C380.003 30.344 383.155 29.24 387.251 29.24C389.939 29.24 392.227 29.752 394.115 30.776C396.035 31.8 397.475 33.208 398.435 35C399.395 36.76 399.875 38.776 399.875 41.048V43.832H380.243C380.659 47.256 383.635 48.968 389.171 48.968C390.643 48.968 392.147 48.84 393.683 48.584C395.219 48.328 396.563 47.976 397.715 47.528V52.184C396.627 52.632 395.219 53 393.491 53.288C391.795 53.576 390.099 53.72 388.403 53.72ZM394.163 39.704C394.099 37.88 393.443 36.472 392.195 35.48C390.979 34.488 389.299 33.992 387.155 33.992C385.043 33.992 383.379 34.504 382.163 35.528C380.947 36.552 380.307 37.944 380.243 39.704H394.163ZM404.693 29.96H410.549V33.656C411.477 32.408 412.789 31.48 414.484 30.872C416.213 30.264 418.181 29.96 420.389 29.96V34.568C418.053 34.568 416.021 34.936 414.293 35.672C412.597 36.376 411.413 37.496 410.741 39.032V53H404.693V29.96Z" fill="black"/>
<path d="M425.727 53C425.055 53 424.479 52.776 423.999 52.328C423.519 51.848 423.279 51.272 423.279 50.6C423.279 49.896 423.519 49.304 423.999 48.824C424.479 48.344 425.055 48.104 425.727 48.104C426.399 48.104 426.975 48.344 427.455 48.824C427.935 49.304 428.175 49.896 428.175 50.6C428.175 51.272 427.935 51.848 427.455 52.328C426.975 52.776 426.399 53 425.727 53Z" fill="#F48B29"/>
<path d="M108.36 19.448H114.264L127.656 53H121.464L118.392 45.272H104.184L101.16 53H94.92L108.36 19.448ZM116.712 40.232L111.288 25.976L105.864 40.232H116.712ZM132.443 17.528H138.491V53H132.443V17.528ZM156.447 64.04C154.911 64.04 153.375 63.896 151.839 63.608C150.303 63.32 149.023 62.936 147.999 62.456V57.656C150.495 58.744 153.311 59.288 156.447 59.288C159.263 59.288 161.279 58.696 162.495 57.512C163.743 56.328 164.367 54.568 164.367 52.232V50.744C163.279 51.736 161.983 52.488 160.479 53C158.975 53.48 157.359 53.72 155.631 53.72C153.295 53.72 151.183 53.208 149.295 52.184C147.407 51.128 145.935 49.672 144.879 47.816C143.823 45.96 143.295 43.832 143.295 41.432C143.295 39 143.807 36.872 144.831 35.048C145.887 33.192 147.327 31.768 149.151 30.776C151.007 29.752 153.103 29.24 155.439 29.24C157.391 29.24 159.071 29.512 160.479 30.056C161.887 30.568 163.247 31.432 164.559 32.648V29.96H170.415V51.608C170.415 55.576 169.263 58.632 166.959 60.776C164.687 62.952 161.183 64.04 156.447 64.04ZM156.927 48.968C158.655 48.968 160.191 48.504 161.535 47.576C162.911 46.616 163.855 45.352 164.367 43.784V39.128C163.823 37.56 162.879 36.312 161.535 35.384C160.191 34.456 158.655 33.992 156.927 33.992C154.751 33.992 152.959 34.68 151.551 36.056C150.143 37.432 149.439 39.224 149.439 41.432C149.439 43.64 150.143 45.448 151.551 46.856C152.959 48.264 154.751 48.968 156.927 48.968ZM187.486 53.72C184.798 53.72 182.43 53.24 180.382 52.28C178.366 51.288 176.798 49.88 175.678 48.056C174.558 46.2 173.998 44.008 173.998 41.48C173.998 39.016 174.542 36.872 175.63 35.048C176.75 33.192 178.334 31.768 180.382 30.776C182.43 29.752 184.798 29.24 187.486 29.24C190.174 29.24 192.526 29.752 194.542 30.776C196.59 31.768 198.174 33.192 199.294 35.048C200.414 36.872 200.974 39.016 200.974 41.48C200.974 44.008 200.414 46.2 199.294 48.056C198.174 49.88 196.59 51.288 194.542 52.28C192.526 53.24 190.174 53.72 187.486 53.72ZM187.486 48.968C189.694 48.968 191.454 48.28 192.766 46.904C194.078 45.496 194.734 43.688 194.734 41.48C194.734 39.144 194.078 37.32 192.766 36.008C191.486 34.664 189.726 33.992 187.486 33.992C185.246 33.992 183.47 34.664 182.158 36.008C180.878 37.32 180.238 39.144 180.238 41.48C180.238 43.688 180.894 45.496 182.206 46.904C183.518 48.28 185.278 48.968 187.486 48.968ZM199.733 19.448H206.213L216.101 44.84L226.036 19.448H232.469L219.077 53H213.173L199.733 19.448ZM237.522 25.928C236.562 25.928 235.746 25.608 235.074 24.968C234.434 24.328 234.114 23.528 234.114 22.568C234.114 21.608 234.434 20.808 235.074 20.168C235.746 19.496 236.562 19.16 237.522 19.16C238.482 19.16 239.298 19.496 239.97 20.168C240.642 20.808 240.978 21.608 240.978 22.568C240.978 23.528 240.642 24.328 239.97 24.968C239.298 25.608 238.482 25.928 237.522 25.928ZM234.45 29.96H240.594V53H234.45V29.96ZM255.7 53.72C254.036 53.72 252.26 53.528 250.372 53.144C248.484 52.76 247.012 52.232 245.956 51.56V46.424C247.204 47.192 248.692 47.816 250.42 48.296C252.148 48.744 253.78 48.968 255.316 48.968C256.852 48.968 257.972 48.84 258.676 48.584C259.38 48.296 259.732 47.784 259.732 47.048C259.732 46.472 259.54 46.008 259.156 45.656C258.804 45.272 258.212 44.936 257.38 44.648C256.58 44.328 255.332 43.944 253.636 43.496C251.716 42.952 250.196 42.392 249.076 41.816C247.988 41.24 247.156 40.52 246.58 39.656C246.036 38.76 245.764 37.608 245.764 36.2C245.764 33.896 246.676 32.168 248.5 31.016C250.324 29.832 252.788 29.24 255.892 29.24C257.492 29.24 259.076 29.4 260.644 29.72C262.244 30.008 263.492 30.424 264.388 30.968V35.912C263.428 35.336 262.26 34.872 260.884 34.52C259.508 34.168 258.1 33.992 256.66 33.992C255.092 33.992 253.908 34.152 253.108 34.472C252.308 34.76 251.908 35.336 251.908 36.2C251.908 36.776 252.116 37.24 252.532 37.592C252.98 37.912 253.556 38.2 254.26 38.456C254.964 38.68 256.244 39.032 258.1 39.512C260.084 40.056 261.636 40.648 262.756 41.288C263.876 41.928 264.676 42.696 265.156 43.592C265.636 44.488 265.876 45.608 265.876 46.952C265.876 49 264.996 50.648 263.236 51.896C261.508 53.112 258.996 53.72 255.7 53.72ZM279.701 53.72C276.597 53.72 274.277 52.888 272.741 51.224C271.205 49.528 270.437 47.288 270.437 44.504V29.96H276.485V43.928C276.485 47.288 278.053 48.968 281.189 48.968C282.565 48.968 283.861 48.648 285.077 48.008C286.293 47.336 287.317 46.344 288.149 45.032V29.96H294.197V53H288.341V49.88C287.253 51.192 285.957 52.168 284.453 52.808C282.949 53.416 281.365 53.72 279.701 53.72ZM307.719 53.72C304.967 53.72 302.711 53 300.951 51.56C299.191 50.088 298.311 48.12 298.311 45.656C298.311 43.096 299.143 41.096 300.807 39.656C302.471 38.216 304.807 37.496 307.815 37.496C310.727 37.496 313.239 38.088 315.351 39.272V38.648C315.351 37.016 314.839 35.832 313.815 35.096C312.823 34.36 311.207 33.992 308.967 33.992C307.559 33.992 306.167 34.136 304.791 34.424C303.415 34.68 302.199 35.048 301.143 35.528V30.776C302.103 30.328 303.383 29.96 304.983 29.672C306.615 29.384 308.183 29.24 309.687 29.24C313.687 29.24 316.647 30.104 318.567 31.832C320.487 33.528 321.447 35.896 321.447 38.936V53H315.735V50.744C314.743 51.704 313.607 52.44 312.327 52.952C311.079 53.464 309.543 53.72 307.719 53.72ZM309.207 49.304C310.551 49.304 311.767 49.048 312.855 48.536C313.943 47.992 314.775 47.256 315.351 46.328V43.784C313.591 42.536 311.575 41.912 309.303 41.912C306.071 41.912 304.455 43.16 304.455 45.656C304.455 46.872 304.855 47.784 305.655 48.392C306.487 49 307.671 49.304 309.207 49.304ZM326.974 17.528H333.022V53H326.974V17.528ZM342.194 25.928C341.234 25.928 340.418 25.608 339.746 24.968C339.106 24.328 338.786 23.528 338.786 22.568C338.786 21.608 339.106 20.808 339.746 20.168C340.418 19.496 341.234 19.16 342.194 19.16C343.154 19.16 343.97 19.496 344.642 20.168C345.314 20.808 345.65 21.608 345.65 22.568C345.65 23.528 345.314 24.328 344.642 24.968C343.97 25.608 343.154 25.928 342.194 25.928ZM339.122 29.96H345.266V53H339.122V29.96ZM350.436 49.208L362.676 34.568H350.772V29.96H370.26V33.752L358.068 48.392H370.644V53H350.436V49.208ZM388.403 53.72C384.115 53.72 380.723 52.648 378.227 50.504C375.731 48.36 374.483 45.368 374.483 41.528C374.483 37.752 375.587 34.76 377.795 32.552C380.003 30.344 383.155 29.24 387.251 29.24C389.939 29.24 392.227 29.752 394.115 30.776C396.035 31.8 397.475 33.208 398.435 35C399.395 36.76 399.875 38.776 399.875 41.048V43.832H380.243C380.659 47.256 383.635 48.968 389.171 48.968C390.643 48.968 392.147 48.84 393.683 48.584C395.219 48.328 396.563 47.976 397.715 47.528V52.184C396.627 52.632 395.219 53 393.491 53.288C391.795 53.576 390.099 53.72 388.403 53.72ZM394.163 39.704C394.099 37.88 393.443 36.472 392.195 35.48C390.979 34.488 389.299 33.992 387.155 33.992C385.043 33.992 383.379 34.504 382.163 35.528C380.947 36.552 380.307 37.944 380.243 39.704H394.163ZM404.693 29.96H410.549V33.656C411.477 32.408 412.789 31.48 414.484 30.872C416.213 30.264 418.181 29.96 420.389 29.96V34.568C418.053 34.568 416.021 34.936 414.293 35.672C412.597 36.376 411.413 37.496 410.741 39.032V53H404.693V29.96Z" fill="black"/>
<path d="M425.727 53C425.055 53 424.479 52.776 423.999 52.328C423.519 51.848 423.279 51.272 423.279 50.6C423.279 49.896 423.519 49.304 423.999 48.824C424.479 48.344 425.055 48.104 425.727 48.104C426.399 48.104 426.975 48.344 427.455 48.824C427.935 49.304 428.175 49.896 428.175 50.6C428.175 51.272 427.935 51.848 427.455 52.328C426.975 52.776 426.399 53 425.727 53Z" fill="#F48B29"/>
<rect y="6.83185" width="8.81977" height="58.0369" fill="url(#paint0_linear)"/>
<rect width="9.25613" height="88.1338" transform="matrix(0.673772 -0.738939 0.673772 0.738939 0 6.87445)" fill="url(#paint1_linear)"/>
<rect width="9.25613" height="87.8093" transform="matrix(-0.673772 -0.738939 0.673772 -0.738939 6.23651 71.7255)" fill="url(#paint2_linear)"/>
<path d="M65.6716 64.8688V71.6659H42.7878L65.6716 64.8688Z" fill="#F48B29" fill-opacity="0.95"/>
<path d="M59.1163 0.0349426V6.83206H82L59.1163 0.0349426Z" fill="#DFA56F"/>
<rect y="6.83185" width="8.81977" height="58.0369" fill="url(#paint3_linear)"/>
<rect width="9.25613" height="88.1338" transform="matrix(0.673772 -0.738939 0.673772 0.738939 0 6.87445)" fill="url(#paint4_linear)"/>
<rect width="9.25613" height="87.8093" transform="matrix(-0.673772 -0.738939 0.673772 -0.738939 6.23651 71.7255)" fill="url(#paint5_linear)"/>
<path d="M65.6716 64.8688V71.6659H42.7878L65.6716 64.8688Z" fill="#F48B29" fill-opacity="0.95"/>
<path d="M59.1163 0.0349426V6.83206H82L59.1163 0.0349426Z" fill="#DFA56F"/>
<path d="M108.36 19.448H114.264L127.656 53H121.464L118.392 45.272H104.184L101.16 53H94.92L108.36 19.448ZM116.712 40.232L111.288 25.976L105.864 40.232H116.712ZM132.443 17.528H138.491V53H132.443V17.528ZM156.447 64.04C154.911 64.04 153.375 63.896 151.839 63.608C150.303 63.32 149.023 62.936 147.999 62.456V57.656C150.495 58.744 153.311 59.288 156.447 59.288C159.263 59.288 161.279 58.696 162.495 57.512C163.743 56.328 164.367 54.568 164.367 52.232V50.744C163.279 51.736 161.983 52.488 160.479 53C158.975 53.48 157.359 53.72 155.631 53.72C153.295 53.72 151.183 53.208 149.295 52.184C147.407 51.128 145.935 49.672 144.879 47.816C143.823 45.96 143.295 43.832 143.295 41.432C143.295 39 143.807 36.872 144.831 35.048C145.887 33.192 147.327 31.768 149.151 30.776C151.007 29.752 153.103 29.24 155.439 29.24C157.391 29.24 159.071 29.512 160.479 30.056C161.887 30.568 163.247 31.432 164.559 32.648V29.96H170.415V51.608C170.415 55.576 169.263 58.632 166.959 60.776C164.687 62.952 161.183 64.04 156.447 64.04ZM156.927 48.968C158.655 48.968 160.191 48.504 161.535 47.576C162.911 46.616 163.855 45.352 164.367 43.784V39.128C163.823 37.56 162.879 36.312 161.535 35.384C160.191 34.456 158.655 33.992 156.927 33.992C154.751 33.992 152.959 34.68 151.551 36.056C150.143 37.432 149.439 39.224 149.439 41.432C149.439 43.64 150.143 45.448 151.551 46.856C152.959 48.264 154.751 48.968 156.927 48.968ZM187.486 53.72C184.798 53.72 182.43 53.24 180.382 52.28C178.366 51.288 176.798 49.88 175.678 48.056C174.558 46.2 173.998 44.008 173.998 41.48C173.998 39.016 174.542 36.872 175.63 35.048C176.75 33.192 178.334 31.768 180.382 30.776C182.43 29.752 184.798 29.24 187.486 29.24C190.174 29.24 192.526 29.752 194.542 30.776C196.59 31.768 198.174 33.192 199.294 35.048C200.414 36.872 200.974 39.016 200.974 41.48C200.974 44.008 200.414 46.2 199.294 48.056C198.174 49.88 196.59 51.288 194.542 52.28C192.526 53.24 190.174 53.72 187.486 53.72ZM187.486 48.968C189.694 48.968 191.454 48.28 192.766 46.904C194.078 45.496 194.734 43.688 194.734 41.48C194.734 39.144 194.078 37.32 192.766 36.008C191.486 34.664 189.726 33.992 187.486 33.992C185.246 33.992 183.47 34.664 182.158 36.008C180.878 37.32 180.238 39.144 180.238 41.48C180.238 43.688 180.894 45.496 182.206 46.904C183.518 48.28 185.278 48.968 187.486 48.968ZM199.733 19.448H206.213L216.101 44.84L226.036 19.448H232.469L219.077 53H213.173L199.733 19.448ZM237.522 25.928C236.562 25.928 235.746 25.608 235.074 24.968C234.434 24.328 234.114 23.528 234.114 22.568C234.114 21.608 234.434 20.808 235.074 20.168C235.746 19.496 236.562 19.16 237.522 19.16C238.482 19.16 239.298 19.496 239.97 20.168C240.642 20.808 240.978 21.608 240.978 22.568C240.978 23.528 240.642 24.328 239.97 24.968C239.298 25.608 238.482 25.928 237.522 25.928ZM234.45 29.96H240.594V53H234.45V29.96ZM255.7 53.72C254.036 53.72 252.26 53.528 250.372 53.144C248.484 52.76 247.012 52.232 245.956 51.56V46.424C247.204 47.192 248.692 47.816 250.42 48.296C252.148 48.744 253.78 48.968 255.316 48.968C256.852 48.968 257.972 48.84 258.676 48.584C259.38 48.296 259.732 47.784 259.732 47.048C259.732 46.472 259.54 46.008 259.156 45.656C258.804 45.272 258.212 44.936 257.38 44.648C256.58 44.328 255.332 43.944 253.636 43.496C251.716 42.952 250.196 42.392 249.076 41.816C247.988 41.24 247.156 40.52 246.58 39.656C246.036 38.76 245.764 37.608 245.764 36.2C245.764 33.896 246.676 32.168 248.5 31.016C250.324 29.832 252.788 29.24 255.892 29.24C257.492 29.24 259.076 29.4 260.644 29.72C262.244 30.008 263.492 30.424 264.388 30.968V35.912C263.428 35.336 262.26 34.872 260.884 34.52C259.508 34.168 258.1 33.992 256.66 33.992C255.092 33.992 253.908 34.152 253.108 34.472C252.308 34.76 251.908 35.336 251.908 36.2C251.908 36.776 252.116 37.24 252.532 37.592C252.98 37.912 253.556 38.2 254.26 38.456C254.964 38.68 256.244 39.032 258.1 39.512C260.084 40.056 261.636 40.648 262.756 41.288C263.876 41.928 264.676 42.696 265.156 43.592C265.636 44.488 265.876 45.608 265.876 46.952C265.876 49 264.996 50.648 263.236 51.896C261.508 53.112 258.996 53.72 255.7 53.72ZM279.701 53.72C276.597 53.72 274.277 52.888 272.741 51.224C271.205 49.528 270.437 47.288 270.437 44.504V29.96H276.485V43.928C276.485 47.288 278.053 48.968 281.189 48.968C282.565 48.968 283.861 48.648 285.077 48.008C286.293 47.336 287.317 46.344 288.149 45.032V29.96H294.197V53H288.341V49.88C287.253 51.192 285.957 52.168 284.453 52.808C282.949 53.416 281.365 53.72 279.701 53.72ZM307.719 53.72C304.967 53.72 302.711 53 300.951 51.56C299.191 50.088 298.311 48.12 298.311 45.656C298.311 43.096 299.143 41.096 300.807 39.656C302.471 38.216 304.807 37.496 307.815 37.496C310.727 37.496 313.239 38.088 315.351 39.272V38.648C315.351 37.016 314.839 35.832 313.815 35.096C312.823 34.36 311.207 33.992 308.967 33.992C307.559 33.992 306.167 34.136 304.791 34.424C303.415 34.68 302.199 35.048 301.143 35.528V30.776C302.103 30.328 303.383 29.96 304.983 29.672C306.615 29.384 308.183 29.24 309.687 29.24C313.687 29.24 316.647 30.104 318.567 31.832C320.487 33.528 321.447 35.896 321.447 38.936V53H315.735V50.744C314.743 51.704 313.607 52.44 312.327 52.952C311.079 53.464 309.543 53.72 307.719 53.72ZM309.207 49.304C310.551 49.304 311.767 49.048 312.855 48.536C313.943 47.992 314.775 47.256 315.351 46.328V43.784C313.591 42.536 311.575 41.912 309.303 41.912C306.071 41.912 304.455 43.16 304.455 45.656C304.455 46.872 304.855 47.784 305.655 48.392C306.487 49 307.671 49.304 309.207 49.304ZM326.974 17.528H333.022V53H326.974V17.528ZM342.194 25.928C341.234 25.928 340.418 25.608 339.746 24.968C339.106 24.328 338.786 23.528 338.786 22.568C338.786 21.608 339.106 20.808 339.746 20.168C340.418 19.496 341.234 19.16 342.194 19.16C343.154 19.16 343.97 19.496 344.642 20.168C345.314 20.808 345.65 21.608 345.65 22.568C345.65 23.528 345.314 24.328 344.642 24.968C343.97 25.608 343.154 25.928 342.194 25.928ZM339.122 29.96H345.266V53H339.122V29.96ZM350.436 49.208L362.676 34.568H350.772V29.96H370.26V33.752L358.068 48.392H370.644V53H350.436V49.208ZM388.403 53.72C384.115 53.72 380.723 52.648 378.227 50.504C375.731 48.36 374.483 45.368 374.483 41.528C374.483 37.752 375.587 34.76 377.795 32.552C380.003 30.344 383.155 29.24 387.251 29.24C389.939 29.24 392.227 29.752 394.115 30.776C396.035 31.8 397.475 33.208 398.435 35C399.395 36.76 399.875 38.776 399.875 41.048V43.832H380.243C380.659 47.256 383.635 48.968 389.171 48.968C390.643 48.968 392.147 48.84 393.683 48.584C395.219 48.328 396.563 47.976 397.715 47.528V52.184C396.627 52.632 395.219 53 393.491 53.288C391.795 53.576 390.099 53.72 388.403 53.72ZM394.163 39.704C394.099 37.88 393.443 36.472 392.195 35.48C390.979 34.488 389.299 33.992 387.155 33.992C385.043 33.992 383.379 34.504 382.163 35.528C380.947 36.552 380.307 37.944 380.243 39.704H394.163ZM404.693 29.96H410.549V33.656C411.477 32.408 412.789 31.48 414.484 30.872C416.213 30.264 418.181 29.96 420.389 29.96V34.568C418.053 34.568 416.021 34.936 414.293 35.672C412.597 36.376 411.413 37.496 410.741 39.032V53H404.693V29.96Z" fill="black"/>
<path d="M425.727 53C425.055 53 424.479 52.776 423.999 52.328C423.519 51.848 423.279 51.272 423.279 50.6C423.279 49.896 423.519 49.304 423.999 48.824C424.479 48.344 425.055 48.104 425.727 48.104C426.399 48.104 426.975 48.344 427.455 48.824C427.935 49.304 428.175 49.896 428.175 50.6C428.175 51.272 427.935 51.848 427.455 52.328C426.975 52.776 426.399 53 425.727 53Z" fill="#F48B29"/>
<path d="M108.36 19.448H114.264L127.656 53H121.464L118.392 45.272H104.184L101.16 53H94.92L108.36 19.448ZM116.712 40.232L111.288 25.976L105.864 40.232H116.712ZM132.443 17.528H138.491V53H132.443V17.528ZM156.447 64.04C154.911 64.04 153.375 63.896 151.839 63.608C150.303 63.32 149.023 62.936 147.999 62.456V57.656C150.495 58.744 153.311 59.288 156.447 59.288C159.263 59.288 161.279 58.696 162.495 57.512C163.743 56.328 164.367 54.568 164.367 52.232V50.744C163.279 51.736 161.983 52.488 160.479 53C158.975 53.48 157.359 53.72 155.631 53.72C153.295 53.72 151.183 53.208 149.295 52.184C147.407 51.128 145.935 49.672 144.879 47.816C143.823 45.96 143.295 43.832 143.295 41.432C143.295 39 143.807 36.872 144.831 35.048C145.887 33.192 147.327 31.768 149.151 30.776C151.007 29.752 153.103 29.24 155.439 29.24C157.391 29.24 159.071 29.512 160.479 30.056C161.887 30.568 163.247 31.432 164.559 32.648V29.96H170.415V51.608C170.415 55.576 169.263 58.632 166.959 60.776C164.687 62.952 161.183 64.04 156.447 64.04ZM156.927 48.968C158.655 48.968 160.191 48.504 161.535 47.576C162.911 46.616 163.855 45.352 164.367 43.784V39.128C163.823 37.56 162.879 36.312 161.535 35.384C160.191 34.456 158.655 33.992 156.927 33.992C154.751 33.992 152.959 34.68 151.551 36.056C150.143 37.432 149.439 39.224 149.439 41.432C149.439 43.64 150.143 45.448 151.551 46.856C152.959 48.264 154.751 48.968 156.927 48.968ZM187.486 53.72C184.798 53.72 182.43 53.24 180.382 52.28C178.366 51.288 176.798 49.88 175.678 48.056C174.558 46.2 173.998 44.008 173.998 41.48C173.998 39.016 174.542 36.872 175.63 35.048C176.75 33.192 178.334 31.768 180.382 30.776C182.43 29.752 184.798 29.24 187.486 29.24C190.174 29.24 192.526 29.752 194.542 30.776C196.59 31.768 198.174 33.192 199.294 35.048C200.414 36.872 200.974 39.016 200.974 41.48C200.974 44.008 200.414 46.2 199.294 48.056C198.174 49.88 196.59 51.288 194.542 52.28C192.526 53.24 190.174 53.72 187.486 53.72ZM187.486 48.968C189.694 48.968 191.454 48.28 192.766 46.904C194.078 45.496 194.734 43.688 194.734 41.48C194.734 39.144 194.078 37.32 192.766 36.008C191.486 34.664 189.726 33.992 187.486 33.992C185.246 33.992 183.47 34.664 182.158 36.008C180.878 37.32 180.238 39.144 180.238 41.48C180.238 43.688 180.894 45.496 182.206 46.904C183.518 48.28 185.278 48.968 187.486 48.968ZM199.733 19.448H206.213L216.101 44.84L226.036 19.448H232.469L219.077 53H213.173L199.733 19.448ZM237.522 25.928C236.562 25.928 235.746 25.608 235.074 24.968C234.434 24.328 234.114 23.528 234.114 22.568C234.114 21.608 234.434 20.808 235.074 20.168C235.746 19.496 236.562 19.16 237.522 19.16C238.482 19.16 239.298 19.496 239.97 20.168C240.642 20.808 240.978 21.608 240.978 22.568C240.978 23.528 240.642 24.328 239.97 24.968C239.298 25.608 238.482 25.928 237.522 25.928ZM234.45 29.96H240.594V53H234.45V29.96ZM255.7 53.72C254.036 53.72 252.26 53.528 250.372 53.144C248.484 52.76 247.012 52.232 245.956 51.56V46.424C247.204 47.192 248.692 47.816 250.42 48.296C252.148 48.744 253.78 48.968 255.316 48.968C256.852 48.968 257.972 48.84 258.676 48.584C259.38 48.296 259.732 47.784 259.732 47.048C259.732 46.472 259.54 46.008 259.156 45.656C258.804 45.272 258.212 44.936 257.38 44.648C256.58 44.328 255.332 43.944 253.636 43.496C251.716 42.952 250.196 42.392 249.076 41.816C247.988 41.24 247.156 40.52 246.58 39.656C246.036 38.76 245.764 37.608 245.764 36.2C245.764 33.896 246.676 32.168 248.5 31.016C250.324 29.832 252.788 29.24 255.892 29.24C257.492 29.24 259.076 29.4 260.644 29.72C262.244 30.008 263.492 30.424 264.388 30.968V35.912C263.428 35.336 262.26 34.872 260.884 34.52C259.508 34.168 258.1 33.992 256.66 33.992C255.092 33.992 253.908 34.152 253.108 34.472C252.308 34.76 251.908 35.336 251.908 36.2C251.908 36.776 252.116 37.24 252.532 37.592C252.98 37.912 253.556 38.2 254.26 38.456C254.964 38.68 256.244 39.032 258.1 39.512C260.084 40.056 261.636 40.648 262.756 41.288C263.876 41.928 264.676 42.696 265.156 43.592C265.636 44.488 265.876 45.608 265.876 46.952C265.876 49 264.996 50.648 263.236 51.896C261.508 53.112 258.996 53.72 255.7 53.72ZM279.701 53.72C276.597 53.72 274.277 52.888 272.741 51.224C271.205 49.528 270.437 47.288 270.437 44.504V29.96H276.485V43.928C276.485 47.288 278.053 48.968 281.189 48.968C282.565 48.968 283.861 48.648 285.077 48.008C286.293 47.336 287.317 46.344 288.149 45.032V29.96H294.197V53H288.341V49.88C287.253 51.192 285.957 52.168 284.453 52.808C282.949 53.416 281.365 53.72 279.701 53.72ZM307.719 53.72C304.967 53.72 302.711 53 300.951 51.56C299.191 50.088 298.311 48.12 298.311 45.656C298.311 43.096 299.143 41.096 300.807 39.656C302.471 38.216 304.807 37.496 307.815 37.496C310.727 37.496 313.239 38.088 315.351 39.272V38.648C315.351 37.016 314.839 35.832 313.815 35.096C312.823 34.36 311.207 33.992 308.967 33.992C307.559 33.992 306.167 34.136 304.791 34.424C303.415 34.68 302.199 35.048 301.143 35.528V30.776C302.103 30.328 303.383 29.96 304.983 29.672C306.615 29.384 308.183 29.24 309.687 29.24C313.687 29.24 316.647 30.104 318.567 31.832C320.487 33.528 321.447 35.896 321.447 38.936V53H315.735V50.744C314.743 51.704 313.607 52.44 312.327 52.952C311.079 53.464 309.543 53.72 307.719 53.72ZM309.207 49.304C310.551 49.304 311.767 49.048 312.855 48.536C313.943 47.992 314.775 47.256 315.351 46.328V43.784C313.591 42.536 311.575 41.912 309.303 41.912C306.071 41.912 304.455 43.16 304.455 45.656C304.455 46.872 304.855 47.784 305.655 48.392C306.487 49 307.671 49.304 309.207 49.304ZM326.974 17.528H333.022V53H326.974V17.528ZM342.194 25.928C341.234 25.928 340.418 25.608 339.746 24.968C339.106 24.328 338.786 23.528 338.786 22.568C338.786 21.608 339.106 20.808 339.746 20.168C340.418 19.496 341.234 19.16 342.194 19.16C343.154 19.16 343.97 19.496 344.642 20.168C345.314 20.808 345.65 21.608 345.65 22.568C345.65 23.528 345.314 24.328 344.642 24.968C343.97 25.608 343.154 25.928 342.194 25.928ZM339.122 29.96H345.266V53H339.122V29.96ZM350.436 49.208L362.676 34.568H350.772V29.96H370.26V33.752L358.068 48.392H370.644V53H350.436V49.208ZM388.403 53.72C384.115 53.72 380.723 52.648 378.227 50.504C375.731 48.36 374.483 45.368 374.483 41.528C374.483 37.752 375.587 34.76 377.795 32.552C380.003 30.344 383.155 29.24 387.251 29.24C389.939 29.24 392.227 29.752 394.115 30.776C396.035 31.8 397.475 33.208 398.435 35C399.395 36.76 399.875 38.776 399.875 41.048V43.832H380.243C380.659 47.256 383.635 48.968 389.171 48.968C390.643 48.968 392.147 48.84 393.683 48.584C395.219 48.328 396.563 47.976 397.715 47.528V52.184C396.627 52.632 395.219 53 393.491 53.288C391.795 53.576 390.099 53.72 388.403 53.72ZM394.163 39.704C394.099 37.88 393.443 36.472 392.195 35.48C390.979 34.488 389.299 33.992 387.155 33.992C385.043 33.992 383.379 34.504 382.163 35.528C380.947 36.552 380.307 37.944 380.243 39.704H394.163ZM404.693 29.96H410.549V33.656C411.477 32.408 412.789 31.48 414.484 30.872C416.213 30.264 418.181 29.96 420.389 29.96V34.568C418.053 34.568 416.021 34.936 414.293 35.672C412.597 36.376 411.413 37.496 410.741 39.032V53H404.693V29.96Z" fill="black"/>
<path d="M425.727 53C425.055 53 424.479 52.776 423.999 52.328C423.519 51.848 423.279 51.272 423.279 50.6C423.279 49.896 423.519 49.304 423.999 48.824C424.479 48.344 425.055 48.104 425.727 48.104C426.399 48.104 426.975 48.344 427.455 48.824C427.935 49.304 428.175 49.896 428.175 50.6C428.175 51.272 427.935 51.848 427.455 52.328C426.975 52.776 426.399 53 425.727 53Z" fill="#F48B29"/>
<rect y="6.83185" width="8.81977" height="58.0369" fill="url(#paint6_linear)"/>
<rect width="9.25613" height="88.1338" transform="matrix(0.673772 -0.738939 0.673772 0.738939 0 6.87445)" fill="url(#paint7_linear)"/>
<rect width="9.25613" height="87.8093" transform="matrix(-0.673772 -0.738939 0.673772 -0.738939 6.23651 71.7255)" fill="url(#paint8_linear)"/>
<path d="M65.6716 64.8688V71.6659H42.7878L65.6716 64.8688Z" fill="#F48B29" fill-opacity="0.95"/>
<path d="M59.1163 0.0349426V6.83206H82L59.1163 0.0349426Z" fill="#DFA56F"/>
<defs>
<linearGradient id="paint0_linear" x1="4.40988" y1="6.83185" x2="4.40988" y2="64.8688" gradientUnits="userSpaceOnUse">
<stop stop-color="#EF7A42"/>
<stop offset="1" stop-color="#B94109"/>
</linearGradient>
<linearGradient id="paint1_linear" x1="4.62806" y1="0" x2="4.62806" y2="88.1338" gradientUnits="userSpaceOnUse">
<stop stop-color="#F48B29"/>
<stop offset="1" stop-color="#E79F5C" stop-opacity="0.73"/>
</linearGradient>
<linearGradient id="paint2_linear" x1="4.62806" y1="0" x2="4.62806" y2="87.8093" gradientUnits="userSpaceOnUse">
<stop stop-color="#F48B29" stop-opacity="0.95"/>
<stop offset="1" stop-color="#DFA56F"/>
</linearGradient>
<linearGradient id="paint3_linear" x1="4.40988" y1="6.83185" x2="4.40988" y2="64.8688" gradientUnits="userSpaceOnUse">
<stop stop-color="#EF7A42"/>
<stop offset="1" stop-color="#B94109"/>
</linearGradient>
<linearGradient id="paint4_linear" x1="4.62806" y1="0" x2="4.62806" y2="88.1338" gradientUnits="userSpaceOnUse">
<stop stop-color="#F48B29"/>
<stop offset="1" stop-color="#E79F5C" stop-opacity="0.73"/>
</linearGradient>
<linearGradient id="paint5_linear" x1="4.62806" y1="0" x2="4.62806" y2="87.8093" gradientUnits="userSpaceOnUse">
<stop stop-color="#F48B29" stop-opacity="0.95"/>
<stop offset="1" stop-color="#DFA56F"/>
</linearGradient>
<linearGradient id="paint6_linear" x1="4.40988" y1="6.83185" x2="4.40988" y2="64.8688" gradientUnits="userSpaceOnUse">
<stop stop-color="#EF7A42"/>
<stop offset="1" stop-color="#B94109"/>
</linearGradient>
<linearGradient id="paint7_linear" x1="4.62806" y1="0" x2="4.62806" y2="88.1338" gradientUnits="userSpaceOnUse">
<stop stop-color="#F48B29"/>
<stop offset="1" stop-color="#E79F5C" stop-opacity="0.73"/>
</linearGradient>
<linearGradient id="paint8_linear" x1="4.62806" y1="0" x2="4.62806" y2="87.8093" gradientUnits="userSpaceOnUse">
<stop stop-color="#F48B29" stop-opacity="0.95"/>
<stop offset="1" stop-color="#DFA56F"/>
</linearGradient>
</defs>
</svg>
